<?xml version="1.0" encoding="iso-8859-1"?>
<!-- Uploaded to: SVG Repo, www.svgrepo.com, Generator: SVG Repo Mixer Tools -->
<svg version="1.1" id="Layer_1" xmlns="http://www.w3.org/2000/svg" xmlns:xlink="http://www.w3.org/1999/xlink" 
	 viewBox="0 0 512 512" xml:space="preserve">
<circle style="fill:#EFC84A;" cx="256" cy="256" r="256"/>
<path style="opacity:0.1;enable-background:new    ;" d="M272.507,165.989l-16.48-14.08l-16.533,14.08h-100.96l-19.68,46.773
	v134.773h-9.493v12.587l151.744,151.744c123.877-2.432,226.128-92.8,246.949-211.291L373.467,165.989H272.507z"/>
<rect x="118.837" y="212.757" style="fill:#EBF0F3;" width="274.347" height="134.773"/>
<polygon style="fill:#E56353;" points="393.163,212.757 118.837,212.757 138.533,165.979 373.467,165.979 "/>
<polygon style="fill:#D15241;" points="256,151.893 176.997,219.307 335.003,219.307 "/>
<rect x="177.013" y="339.973" style="fill:#3A556A;" width="158.005" height="9.68"/>
<g>
	<rect x="109.333" y="347.52" style="fill:#64798A;" width="293.333" height="12.56"/>
	<rect x="188.533" y="219.307" style="fill:#64798A;" width="24.059" height="10.341"/>
	<rect x="299.413" y="219.307" style="fill:#64798A;" width="24.059" height="10.341"/>
</g>
<g>
	<rect x="302.288" y="229.653" style="fill:#D5D6DB;" width="18.341" height="99.984"/>
	<rect x="191.376" y="229.653" style="fill:#D5D6DB;" width="18.341" height="99.984"/>
</g>
<g>
	<rect x="188.533" y="329.632" style="fill:#64798A;" width="24.059" height="10.341"/>
	<rect x="299.413" y="329.632" style="fill:#64798A;" width="24.059" height="10.341"/>
</g>
<rect x="230.4" y="262.507" style="fill:#DC8744;" width="51.2" height="77.461"/>
<rect x="136.693" y="226.757" style="fill:#D5D6DB;" width="26.064" height="29.109"/>
<rect x="139.36" y="229.44" style="fill:#27A2DB;" width="20.731" height="23.776"/>
<g>
	<polygon style="fill:#39B9E5;" points="144.213,253.2 143.344,253.2 152.736,229.424 153.6,229.424 	"/>
	<polygon style="fill:#39B9E5;" points="146.715,253.2 144.901,253.2 154.288,229.424 156.101,229.424 	"/>
</g>
<rect x="136.693" y="280.053" style="fill:#D5D6DB;" width="26.064" height="29.109"/>
<rect x="139.36" y="282.72" style="fill:#27A2DB;" width="20.731" height="23.776"/>
<g>
	<polygon style="fill:#39B9E5;" points="144.213,306.485 143.344,306.485 152.736,282.709 153.6,282.709 	"/>
	<polygon style="fill:#39B9E5;" points="146.715,306.485 144.901,306.485 154.288,282.709 156.101,282.709 	"/>
</g>
<rect x="349.227" y="226.757" style="fill:#D5D6DB;" width="26.064" height="29.109"/>
<rect x="351.909" y="229.44" style="fill:#27A2DB;" width="20.731" height="23.776"/>
<g>
	<polygon style="fill:#39B9E5;" points="356.763,253.2 355.899,253.2 365.285,229.424 366.149,229.424 	"/>
	<polygon style="fill:#39B9E5;" points="359.264,253.2 357.451,253.2 366.843,229.424 368.651,229.424 	"/>
</g>
<rect x="349.227" y="280.053" style="fill:#D5D6DB;" width="26.064" height="29.109"/>
<rect x="351.909" y="282.72" style="fill:#27A2DB;" width="20.731" height="23.776"/>
<g>
	<polygon style="fill:#39B9E5;" points="356.763,306.485 355.899,306.485 365.285,282.709 366.149,282.709 	"/>
	<polygon style="fill:#39B9E5;" points="359.264,306.485 357.451,306.485 366.843,282.709 368.651,282.709 	"/>
</g>
</svg>